<?xml version="1.0" standalone="no"?>
<!DOCTYPE svg PUBLIC "-//W3C//DTD SVG 20010904//EN"
 "http://www.w3.org/TR/2001/REC-SVG-20010904/DTD/svg10.dtd">
<svg version="1.0" xmlns="http://www.w3.org/2000/svg"
 width="463.000000pt" height="103.000000pt" viewBox="0 0 463.000000 103.000000"
 preserveAspectRatio="xMidYMid meet">

<g transform="translate(0.000000,103.000000) scale(0.100000,-0.100000)"
fill="#000000" stroke="none">
<path d="M20 1010 c-19 -19 -20 -33 -20 -430 0 -397 1 -411 20 -430 11 -11 31
-20 45 -20 23 0 25 -4 25 -40 0 -43 33 -90 63 -90 32 0 59 35 64 83 l6 47 228
0 229 0 0 -39 c0 -49 27 -83 64 -83 39 -1 57 22 63 76 5 37 9 46 25 46 11 0
28 5 39 10 18 10 19 26 19 440 0 414 -1 430 -19 440 -13 6 -165 10 -425 10
-393 0 -407 -1 -426 -20z m788 -151 c3 -83 2 -86 -22 -97 -28 -13 -44 -57 -29
-81 5 -9 19 -20 31 -26 20 -9 22 -17 22 -97 l0 -88 -360 0 -360 0 0 85 c0 81
1 86 25 97 45 20 45 89 0 110 -24 11 -25 16 -25 93 0 45 3 85 7 88 4 4 164 6
357 5 l351 -3 3 -86z"/>
<path d="M1083 525 l-1 -277 174 4 c191 3 203 7 252 78 38 56 27 169 -22 209
-13 11 -11 17 11 49 20 30 24 46 20 85 -9 98 -56 119 -273 125 l-161 4 0 -277z
m268 155 c11 -6 19 -21 19 -35 0 -32 -26 -45 -89 -45 l-51 0 0 45 0 45 51 0
c28 0 59 -5 70 -10z m7 -206 c15 -10 22 -25 22 -49 0 -51 -22 -66 -89 -63
l-56 3 -3 63 -3 62 53 0 c32 0 62 -6 76 -16z"/>
<path d="M1641 706 c-13 -13 -36 -30 -52 -36 -27 -11 -29 -17 -29 -62 l0 -50
30 6 30 6 0 -161 0 -160 68 3 67 3 5 233 5 232 -30 0 c-16 0 -39 3 -50 6 -14
3 -28 -3 -44 -20z"/>
<path d="M1965 721 c-96 -25 -148 -104 -130 -198 14 -78 116 -132 196 -104 42
14 48 7 19 -24 -26 -27 -76 -45 -129 -45 -31 0 -33 -2 -28 -27 3 -16 10 -41
17 -57 10 -28 12 -28 63 -22 107 15 187 66 232 147 59 110 30 256 -63 307 -45
25 -128 36 -177 23z m110 -121 c23 -25 23 -70 -1 -87 -26 -19 -71 -16 -94 7
-24 24 -25 48 -4 78 20 29 74 30 99 2z"/>
<path d="M2448 721 c-140 -46 -208 -215 -139 -349 72 -141 247 -173 355 -66
146 147 62 404 -136 419 -29 3 -65 0 -80 -4z m119 -165 c23 -20 28 -32 28 -71
0 -39 -5 -51 -28 -71 -57 -49 -133 -16 -144 63 -5 37 -2 45 25 73 38 37 80 40
119 6z"/>
<path d="M2915 721 c-96 -25 -148 -104 -130 -198 14 -78 116 -132 196 -104 42
14 48 7 19 -24 -26 -27 -76 -45 -129 -45 -31 0 -33 -2 -28 -27 3 -16 10 -41
17 -57 10 -28 12 -28 63 -22 107 15 187 66 232 147 59 110 30 256 -63 307 -45
25 -128 36 -177 23z m110 -121 c23 -25 23 -70 -1 -87 -26 -19 -71 -16 -94 7
-24 24 -25 48 -4 78 20 29 74 30 99 2z"/>
<path d="M3365 721 c-96 -25 -148 -104 -130 -198 14 -78 116 -132 196 -104 42
14 48 7 19 -24 -26 -27 -76 -45 -129 -45 -31 0 -33 -2 -28 -27 3 -16 10 -41
17 -57 10 -28 12 -28 63 -22 107 15 187 66 232 147 59 110 30 256 -63 307 -45
25 -128 36 -177 23z m110 -121 c23 -25 23 -70 -1 -87 -26 -19 -71 -16 -94 7
-24 24 -25 48 -4 78 20 29 74 30 99 2z"/>
<path d="M3765 716 c-27 -7 -60 -19 -73 -27 -22 -14 -23 -24 -7 -105 l5 -21
47 23 c60 31 103 31 131 1 12 -13 22 -29 22 -36 0 -49 -124 -187 -177 -197
-34 -6 -35 -8 -29 -43 3 -20 6 -41 6 -47 0 -7 52 -10 158 -10 86 1 169 -3 185
-8 l27 -8 0 72 0 72 -82 -7 -82 -7 48 53 c62 69 86 117 86 175 0 39 -5 51 -33
79 -53 53 -129 66 -232 41z"/>
<path d="M4175 716 c-27 -7 -60 -19 -73 -27 -22 -14 -23 -24 -7 -105 l5 -21
47 23 c60 31 103 31 131 1 12 -13 22 -29 22 -36 0 -49 -124 -187 -177 -197
-34 -6 -35 -8 -29 -43 3 -20 6 -41 6 -47 0 -7 52 -10 158 -10 86 1 169 -3 185
-8 l27 -8 0 72 0 72 -82 -7 -82 -7 48 53 c62 69 86 117 86 175 0 39 -5 51 -33
79 -53 53 -129 66 -232 41z"/>
</g>
</svg>
